PathFileType	4	(X/Y/Z)	C:\Users\Basilio\Documents\Thesis Gigler\squatting_fais\c3dfiles\038\SJ_pre2\markers_experimental.trc
DataRate	CameraRate	NumFrames	NumMarkers	Units	OrigDataRate	OrigDataStartFrame	OrigNumFrames
200.000000	200.000000	4	61	mm	200.000000	1622	1854
Frame#	Time	FHD			LBHD			RBHD			C7			T10			LSHO			LUUPA			LMUPA			LDUPA			LLEP			LMEP			LRAD			LUL			LRFIN			RSHO			RUPA1			RMUPA			RDUPA			RLEP			RMEP			RRAD			RUL			RUFIN			LASI			RASI			USACR			LSACR			RSACR			LTHI1			LTHI2			LTHI3			LTHI4			LLFC			LMFC			LTIB1			LTIB2			LTIB3			LTIB4			LLMAL			LMMAL			LHEE			LMT1			LMT2			LMT5			RTHI			RTHI2			RTHI3			RTHI4			RLFC			RMFC			RTIB1			RTIB2			RTIB3			RTIB4			RLMAL			RMMAL			RHEE			RMT1			RMT2			RMT5			CLAV			
		X1	Y1	Z1	X2	Y2	Z2	X3	Y3	Z3	X4	Y4	Z4	X5	Y5	Z5	X6	Y6	Z6	X7	Y7	Z7	X8	Y8	Z8	X9	Y9	Z9	X10	Y10	Z10	X11	Y11	Z11	X12	Y12	Z12	X13	Y13	Z13	X14	Y14	Z14	X15	Y15	Z15	X16	Y16	Z16	X17	Y17	Z17	X18	Y18	Z18	X19	Y19	Z19	X20	Y20	Z20	X21	Y21	Z21	X22	Y22	Z22	X23	Y23	Z23	X24	Y24	Z24	X25	Y25	Z25	X26	Y26	Z26	X27	Y27	Z27	X28	Y28	Z28	X29	Y29	Z29	X30	Y30	Z30	X31	Y31	Z31	X32	Y32	Z32	X33	Y33	Z33	X34	Y34	Z34	X35	Y35	Z35	X36	Y36	Z36	X37	Y37	Z37	X38	Y38	Z38	X39	Y39	Z39	X40	Y40	Z40	X41	Y41	Z41	X42	Y42	Z42	X43	Y43	Z43	X44	Y44	Z44	X45	Y45	Z45	X46	Y46	Z46	X47	Y47	Z47	X48	Y48	Z48	X49	Y49	Z49	X50	Y50	Z50	X51	Y51	Z51	X52	Y52	Z52	X53	Y53	Z53	X54	Y54	Z54	X55	Y55	Z55	X56	Y56	Z56	X57	Y57	Z57	X58	Y58	Z58	X59	Y59	Z59	X60	Y60	Z60	X61	Y61	Z61	

1623	8.109999999999999	-394.0769653320314	1742.713623046875	-1000.166259765625	-529.7296142578126	1678.818603515625	-1088.80615234375	-548.8427124023439	1666.921997070313	-945.0089111328127	-583.3479003906251	1508.581909179688	-1011.20263671875	-596.4976806640626	1222.52197265625	-1004.588256835938	-487.3455505371095	1515.92529296875	-1183.455444335938	-495.8142089843751	1340.8525390625	-1355.820556640625	-452.2139892578126	1317.867553710938	-1340.808715820313	-470.6224975585939	1282.771362304688	-1385.714599609375	-448.2962341308595	1221.797241210938	-1399.554077148438	-524.5917358398439	1190.701538085938	-1388.7080078125	-444.605926513672	994.9492187500002	-1209.51123046875	-387.9437866210939	970.9680786132815	-1248.007690429688	-423.1679077148439	978.0855102539065	-1143.05517578125	-474.3268127441407	1512.534790039063	-849.1843261718752	-450.0153198242189	1349.826904296875	-686.9990234375001	-429.4849853515626	1309.452392578125	-705.5088500976564	-443.095916748047	1291.887329101563	-649.6216430664064	-429.4208374023439	1218.504760742188	-625.9175415039064	-511.081024169922	1199.349975585938	-620.5189819335939	-455.3521423339845	979.764587402344	-768.4078369140627	-395.0274353027345	957.7607421875002	-737.3002929687501	-422.5907592773439	970.5329589843752	-830.795104980469	-426.3638916015626	1029.439819335938	-1111.4814453125	-444.5865173339845	1042.928833007813	-862.8500976562502	-602.8464965820314	1080.8515625	-999.5960693359377	-614.7444458007814	1050.635131835938	-1027.511840820313	-618.1171875000001	1052.532104492188	-970.9819335937502	-453.9289550781251	709.4717407226564	-1177.941284179688	-420.4255371093751	630.9402465820314	-1174.08154296875	-375.2767639160157	637.2601928710939	-1151.041625976563	-446.7894897460939	579.8732299804689	-1158.471313476563	-442.4214172363282	519.1661376953126	-1150.830688476563	-429.0064697265626	506.0621032714845	-1034.173095703125	-433.0950927734376	324.3296203613282	-1086.022827148438	-486.6744995117189	292.6340332031251	-1150.0048828125	-453.2312316894532	280.8973388671876	-1122.823852539063	-477.0971069335939	204.7991790771485	-1093.164428710938	-583.2402343750001	84.81524658203126	-1116.378540039063	-539.3286132812501	96.87638854980472	-1045.1162109375	-625.8305053710939	45.03573608398438	-1059.765502929688	-415.3789062500001	46.35896301269532	-1079.261474609375	-416.1441040039064	48.54362869262697	-1130.898071289063	-462.5203247070314	30.11956596374512	-1173.371948242188	-493.0173950195314	777.8001098632815	-782.8164062500002	-451.7786560058595	727.3046264648439	-765.4091796875001	-418.6766052246095	732.0318603515626	-765.8477172851564	-469.7450561523439	643.3298339843751	-779.0295410156252	-437.2596130371095	514.4118041992189	-768.4328613281252	-417.5419311523439	500.428680419922	-883.9531860351565	-384.9574584960939	338.7071838378907	-765.6660156250001	-466.5348510742189	261.2110900878907	-734.9799194335939	-418.8545837402345	264.4252014160157	-737.2587890625001	-402.6490783691407	211.789291381836	-757.8554687500001	-470.3218688964845	92.82737731933595	-727.2042846679689	-425.5858154296876	92.91312408447267	-798.8215332031252	-510.5873413085939	38.49570083618165	-798.5747070312502	-303.5363769531251	50.60649490356447	-730.5751342773439	-318.2242736816407	58.16328811645509	-686.5538940429689	-369.7034301757813	36.83410263061524	-654.0796508789064	-438.6590576171876	1477.829345703125	-1015.218994140625	
1624	8.115	-393.275604248047	1742.31103515625	-1001.927185058594	-529.2838745117189	1678.636596679688	-1090.494140625	-548.1917114257814	1667.078369140625	-946.5985107421877	-583.1272583007814	1508.540405273438	-1012.588317871094	-596.7221069335939	1222.614379882813	-1005.634216308594	-487.3451232910157	1515.5546875	-1184.956909179688	-496.2034912109376	1340.360473632813	-1356.985473632813	-452.3006896972657	1317.494995117188	-1342.175048828125	-470.8841552734376	1282.29296875	-1386.96337890625	-448.811981201172	1221.594970703125	-1400.786499023438	-524.8840942382814	1190.10009765625	-1389.6494140625	-444.3453369140626	994.6629028320315	-1209.977172851563	-387.8189392089845	970.8444824218752	-1248.675537109375	-423.2052307128907	977.971130371094	-1143.708374023438	-474.2134399414064	1512.633544921875	-850.7138671875002	-450.3563537597657	1350.179809570313	-688.4075927734376	-429.5537719726564	1309.748413085938	-706.8524169921876	-443.2814025878907	1292.228271484375	-650.9799804687501	-429.5982055664064	1218.80126953125	-627.1259765625001	-511.3933410644532	1199.67578125	-621.8257446289064	-455.6683044433595	979.6980590820315	-769.306579589844	-395.473114013672	958.7210083007815	-738.8483886718751	-423.0079956054689	971.3934326171877	-831.6441650390627	-426.5037841796876	1029.733154296875	-1112.092041015625	-444.853973388672	1043.041870117188	-863.6512451171877	-603.2717285156251	1081.40380859375	-1000.636413574219	-614.7015380859376	1050.7490234375	-1028.266479492188	-618.5437622070314	1052.651977539063	-971.9060058593752	-454.038787841797	709.5038452148439	-1178.531616210938	-420.6055603027345	631.0258789062501	-1174.608032226563	-375.4628906250001	637.3917236328126	-1151.312255859375	-447.0332946777345	579.8860473632814	-1158.895385742188	-442.7835998535157	519.2664184570314	-1151.164672851563	-429.893035888672	506.4154052734376	-1034.574951171875	-433.401580810547	324.4314880371094	-1086.162841796875	-486.8051757812501	292.7054138183594	-1150.224243164063	-453.3941650390626	280.9763793945313	-1122.889770507813	-477.1838989257814	204.9650115966797	-1093.202270507813	-583.4742431640626	84.72602844238283	-1116.496215820313	-538.8214721679689	97.13472747802737	-1045.008544921875	-625.8573608398439	45.07463836669923	-1059.790649414063	-415.3527221679689	46.32595443725587	-1079.26123046875	-416.1568603515626	48.50807952880861	-1130.8974609375	-462.5037536621095	30.08474922180176	-1173.3662109375	-493.791229248047	777.9041748046877	-783.4910888671877	-452.8791809082032	727.0714111328126	-766.1971435546876	-419.3775634765626	731.8548583984376	-766.7739868164064	-470.6383666992189	643.3709106445314	-779.637878417969	-437.8255615234376	514.6219482421876	-769.0656738281252	-418.2296142578126	500.4137268066407	-884.5454101562502	-385.5928955078126	338.8649597167969	-766.0175170898439	-466.8793945312501	261.3236999511719	-735.3304443359376	-419.2731933593751	264.4857788085938	-737.5175781250001	-402.9836425781251	211.9372711181641	-758.1144409179689	-470.3378295898439	92.9157180786133	-727.1932373046876	-425.6726684570314	92.91058349609376	-798.9129028320315	-510.5042114257814	38.49406051635743	-798.6065063476565	-303.4780883789063	50.5524024963379	-730.5229492187501	-318.1941223144532	58.14001464843751	-686.5632934570314	-369.7122802734376	36.83615875244141	-654.1370849609376	-438.721893310547	1477.922729492188	-1016.657592773438	
1625	8.120000000000001	-392.7640991210939	1742.03271484375	-1003.034484863281	-528.7229614257814	1678.863647460938	-1092.134765625	-547.5588989257814	1667.244995117188	-948.324401855469	-583.0343017578126	1508.77001953125	-1014.086608886719	-597.0491333007814	1222.663940429688	-1006.575317382813	-487.4266967773439	1515.295166015625	-1186.360473632813	-496.3798217773439	1339.840576171875	-1358.231689453125	-452.770233154297	1316.944458007813	-1343.076538085938	-470.9043884277345	1281.763671875	-1388.1201171875	-449.0907592773439	1220.986572265625	-1401.7490234375	-524.9694213867189	1189.528564453125	-1390.648315429688	-444.5520324707032	994.5102539062502	-1210.790283203125	-387.8308715820314	970.6013793945315	-1249.320922851563	-423.3937377929689	977.866638183594	-1144.324584960938	-474.2904357910157	1512.781005859375	-852.0772705078127	-450.6212463378907	1350.4140625	-689.5894165039064	-429.8730773925782	1309.996948242188	-708.0109863281251	-443.4638671875001	1292.434326171875	-652.2799682617189	-429.9620666503907	1219.0458984375	-628.2272338867189	-511.5995483398439	1200.007568359375	-623.0558471679689	-456.0043029785157	979.8332519531252	-770.1385498046877	-395.9873962402345	958.6202392578127	-739.5683593750001	-423.3584594726564	971.2991943359377	-832.4207763671877	-427.0733947753907	1029.333251953125	-1112.9638671875	-445.2023315429689	1043.058715820313	-864.3435058593752	-603.6607666015626	1081.407104492188	-1001.437744140625	-615.0573730468751	1050.966552734375	-1029.114868164063	-618.7766113281251	1052.773803710938	-972.780212402344	-454.3457031250001	709.5652465820314	-1179.14501953125	-420.765350341797	631.1406860351564	-1175.02587890625	-375.7158813476563	637.4708251953126	-1151.5771484375	-447.3753356933595	579.9891967773439	-1159.315795898438	-442.8126831054689	519.5665283203126	-1151.442626953125	-430.4559326171876	506.6291503906251	-1034.961059570313	-433.7803649902345	324.5858459472657	-1086.22412109375	-486.8560791015626	292.7118225097657	-1150.453369140625	-453.5119018554689	281.0992736816407	-1123.05078125	-477.3038024902345	205.0659942626954	-1093.34375	-583.4625854492189	84.93111419677736	-1116.482543945313	-539.4333496093751	96.87272644042972	-1045.241333007813	-625.8712158203126	45.04912567138673	-1059.841918945313	-415.372039794922	46.37996673583985	-1079.28955078125	-416.1343994140626	48.48404693603517	-1130.924438476563	-462.4336547851564	30.05391120910645	-1173.410766601563	-494.5643310546876	778.0186157226565	-784.0628051757815	-453.523406982422	727.1327514648439	-766.8883666992189	-420.041229248047	731.8072509765626	-767.4757080078126	-471.5891723632814	643.3607177734376	-780.4028320312502	-438.6848144531251	514.7068481445314	-769.784606933594	-418.8263244628907	500.3408203125001	-885.1860961914065	-386.2083740234376	339.0704650878907	-766.4454345703126	-467.2808227539064	261.4318237304688	-735.5812377929689	-419.7170715332032	264.6744079589844	-737.8566284179689	-403.2969360351564	212.0876922607422	-758.2678222656251	-470.3803100585939	92.97832489013673	-727.3031005859376	-425.6375427246095	92.94470977783205	-798.9638671875002	-510.4964904785157	38.48143768310548	-798.6170654296877	-303.4110107421876	50.50907135009767	-730.4722900390626	-318.2070007324219	58.04535293579103	-686.5144042968751	-369.6423339843751	36.83427429199219	-654.1395874023439	-438.5840454101564	1477.783935546875	-1018.133728027344	
1626	8.125	-391.7851562500001	1741.872924804688	-1004.782104492188	-528.0062255859376	1679.1083984375	-1093.618774414063	-547.3226318359376	1667.6552734375	-949.9372558593752	-582.9537963867189	1509.018798828125	-1015.653930664063	-597.1414794921876	1222.7666015625	-1007.499206542969	-487.598846435547	1514.92919921875	-1187.711669921875	-496.5133056640626	1339.387084960938	-1359.378662109375	-452.9371032714845	1316.423583984375	-1344.319580078125	-471.2779541015626	1281.070556640625	-1389.14599609375	-449.1600341796876	1220.4521484375	-1402.701538085938	-525.1745605468751	1189.0234375	-1391.656982421875	-444.7781677246095	994.4455566406252	-1211.528198242188	-387.838836669922	970.346130371094	-1249.962524414063	-423.6748657226564	977.720153808594	-1145.0166015625	-474.2579040527345	1512.931396484375	-853.6707763671877	-450.8902893066407	1350.578491210938	-690.7841186523439	-430.0731201171876	1310.121337890625	-709.0614624023439	-443.8562011718751	1292.789306640625	-653.3681030273439	-430.1838378906251	1219.42529296875	-629.3228149414064	-511.7082519531251	1200.375	-624.2905273437501	-456.3146362304689	979.924499511719	-771.0312500000002	-395.8780822753907	958.6070556640627	-739.6838989257814	-423.7424621582032	971.2633056640627	-833.2595214843752	-427.4420471191407	1029.27294921875	-1113.898559570313	-445.641082763672	1043.049560546875	-865.129821777344	-604.1027832031251	1081.5556640625	-1002.305725097656	-615.4625244140626	1051.005004882813	-1030.099731445313	-618.9572753906251	1052.789184570313	-973.5872192382815	-454.5531005859376	709.6462402343751	-1179.720703125	-420.9705810546876	631.2593383789064	-1175.406127929688	-376.0116577148438	637.5333251953126	-1151.908935546875	-447.6593627929689	580.1093750000001	-1159.70068359375	-443.1728515625001	519.6245727539064	-1151.746337890625	-431.1947326660157	506.8352050781251	-1035.335083007813	-434.1509094238282	324.6641845703126	-1086.33837890625	-486.9900512695314	292.6480102539063	-1150.653686523438	-453.6521606445314	281.0727844238282	-1123.10498046875	-477.4214172363282	205.0556640625001	-1093.396484375	-582.4393920898439	84.9352264404297	-1116.515625	-539.4535522460939	96.85578155517581	-1045.325439453125	-625.8569946289064	45.05909729003907	-1059.85546875	-415.3975524902345	46.36810684204102	-1079.3095703125	-416.1539916992189	48.4920997619629	-1130.938842773438	-462.4546813964845	30.03130912780762	-1173.4267578125	-495.2135620117189	778.0515136718752	-784.8121337890627	-454.1131591796876	727.4516601562501	-767.5128784179689	-420.7894897460939	731.9411621093751	-768.0261230468752	-472.4096069335939	643.3689575195314	-781.0808715820315	-439.7290344238282	514.6443481445314	-770.4959716796877	-419.4459838867189	500.3817138671876	-885.8995361328127	-386.6767578125001	339.1624145507813	-766.7915039062501	-467.6561279296876	261.4914245605469	-736.0510253906251	-420.0976562500001	264.8763427734376	-738.1973266601564	-403.5624389648439	212.1493682861329	-758.4750976562501	-470.4942626953126	93.0705032348633	-727.4141845703126	-425.5996704101564	92.95820617675783	-799.035339355469	-510.491668701172	38.51869583129884	-798.6638793945315	-303.4365539550782	50.5727996826172	-730.5764770507814	-318.1566467285157	58.00831604003908	-686.5656738281251	-369.6230773925782	36.84301757812501	-654.1096801757814	-438.5803527832032	1477.623657226563	-1019.605834960938	
